<svg width="66" height="66" viewBox="0 0 66 66" fill="none" xmlns="http://www.w3.org/2000/svg">
<g filter="url(#filter0_d_3845_3362)">
<rect x="4" width="58" height="58" rx="29" fill="#F5F5F5" shape-rendering="crispEdges"/>
<path d="M33 21.2083C28.6968 21.2083 25.2083 24.6967 25.2083 28.9999C25.2083 33.3031 28.6968 36.7916 33 36.7916C37.0495 36.7916 40.377 33.7027 40.7558 29.7523C40.7734 29.5684 40.6789 29.3919 40.5162 29.3046C40.3534 29.2173 40.1541 29.2362 40.0107 29.3526C39.2227 29.9921 38.2192 30.3749 37.125 30.3749C34.5937 30.3749 32.5416 28.3229 32.5416 25.7916C32.5416 24.2882 33.265 22.9538 34.3847 22.1173C34.5327 22.0067 34.5999 21.818 34.555 21.6387C34.51 21.4595 34.3619 21.3247 34.1792 21.297C33.7944 21.2385 33.4006 21.2083 33 21.2083Z" fill="#555555"/>
</g>
<defs>
<filter id="filter0_d_3845_3362" x="0" y="0" width="66" height="66" filterUnits="userSpaceOnUse" color-interpolation-filters="sRGB">
<feFlood flood-opacity="0" result="BackgroundImageFix"/>
<feColorMatrix in="SourceAlpha" type="matrix" values="0 0 0 0 0 0 0 0 0 0 0 0 0 0 0 0 0 0 127 0" result="hardAlpha"/>
<feOffset dy="4"/>
<feGaussianBlur stdDeviation="2"/>
<feComposite in2="hardAlpha" operator="out"/>
<feColorMatrix type="matrix" values="0 0 0 0 0 0 0 0 0 0 0 0 0 0 0 0 0 0 0.25 0"/>
<feBlend mode="normal" in2="BackgroundImageFix" result="effect1_dropShadow_3845_3362"/>
<feBlend mode="normal" in="SourceGraphic" in2="effect1_dropShadow_3845_3362" result="shape"/>
</filter>
</defs>
</svg>
